<?xml version="1.0" standalone="no"?>
<!DOCTYPE svg PUBLIC "-//W3C//DTD SVG 20010904//EN"
 "http://www.w3.org/TR/2001/REC-SVG-20010904/DTD/svg10.dtd">
<svg version="1.0" xmlns="http://www.w3.org/2000/svg"
 width="1600.000000pt" height="2500.000000pt" viewBox="0 0 1600.000000 2500.000000"
 preserveAspectRatio="xMidYMid meet">

<g transform="translate(0.000000,2500.000000) scale(0.100000,-0.100000)"
fill="#000000" stroke="none">
<path d="M3740 19297 c0 -7 37 -47 44 -47 4 0 -1 11 -10 25 -14 21 -34 34 -34
22z"/>
<path d="M3778 19231 c9 -5 11 -17 6 -36 -5 -20 -4 -26 4 -21 12 7 62 -36 62
-54 0 -5 5 -10 10 -10 15 0 49 -37 42 -46 -4 -4 -1 -3 7 1 11 6 13 4 8 -9 -4
-10 -7 -20 -7 -24 0 -3 -12 5 -27 19 l-28 24 25 -28 c23 -26 25 -27 38 -10 12
17 13 16 18 -5 4 -12 12 -22 19 -22 16 0 40 -28 31 -37 -3 -4 -16 3 -29 15
-13 12 -30 22 -38 22 -8 0 2 -12 21 -27 19 -15 64 -56 99 -90 36 -35 67 -63
70 -63 2 0 -24 29 -59 65 -34 36 -59 69 -55 73 4 4 10 1 12 -5 3 -7 9 -13 15
-13 9 0 0 14 -61 87 -17 21 -54 67 -83 103 -64 80 -84 100 -100 100 -11 0 -10
-2 0 -9z"/>
<path d="M3815 19110 c3 -5 8 -10 11 -10 2 0 4 5 4 10 0 6 -5 10 -11 10 -5 0
-7 -4 -4 -10z"/>
<path d="M2451 18324 c0 -11 3 -14 6 -6 3 7 2 16 -1 19 -3 4 -6 -2 -5 -13z"/>
<path d="M782 17948 c-1 -31 -5 -65 -8 -75 -5 -14 -4 -15 5 -7 8 7 11 34 8 75
l-3 64 -2 -57z"/>
<path d="M773 17230 c0 -41 2 -58 4 -37 2 20 2 54 0 75 -2 20 -4 3 -4 -38z"/>
<path d="M765 17030 c-7 -94 -4 -122 11 -108 6 7 7 199 0 205 -2 2 -7 -41 -11
-97z"/>
<path d="M1371 17089 c-7 -12 -10 -23 -8 -26 3 -3 11 5 17 17 15 28 8 35 -9 9z"/>
<path d="M1288 16938 c-39 -60 -190 -377 -185 -389 3 -9 10 -1 18 21 7 19 52
115 101 213 83 167 99 206 66 155z"/>
<path d="M5400 16526 c-119 -19 -199 -41 -255 -70 -26 -14 -61 -26 -76 -26
-16 0 -29 -4 -29 -10 0 -5 -5 -10 -12 -10 -6 0 -19 -6 -27 -14 -9 -8 -23 -16
-31 -18 -8 -2 -21 -9 -28 -16 -8 -7 -18 -9 -24 -6 -7 4 -8 2 -4 -4 12 -19 -3
-35 -20 -21 -11 9 -14 8 -14 -4 0 -10 -6 -14 -14 -11 -8 3 -17 0 -22 -7 -5 -9
1 -11 22 -6 23 4 33 1 42 -13 10 -16 9 -18 -5 -13 -13 5 -15 2 -10 -11 4 -9 3
-15 -2 -12 -9 6 -25 -54 -16 -62 3 -3 5 0 5 6 0 7 8 12 18 12 11 0 27 9 36 19
17 18 141 49 152 38 3 -3 -1 -18 -9 -34 -32 -63 -30 -78 13 -107 28 -18 48
-24 64 -20 18 4 27 0 36 -16 14 -27 -8 -56 -50 -65 -15 -3 -36 -15 -46 -26
-16 -18 -16 -19 7 -20 13 -1 27 -1 32 0 4 0 7 -3 7 -9 0 -5 7 -7 16 -3 14 5
15 3 5 -16 -11 -20 -11 -21 7 -10 15 9 29 8 68 -7 44 -17 46 -19 24 -25 -14
-4 -18 -8 -10 -8 13 -1 13 -2 0 -12 -12 -9 -11 -10 8 -6 14 3 22 0 22 -8 0 -7
15 -22 33 -34 17 -11 41 -26 52 -33 11 -7 22 -16 25 -19 3 -4 30 -3 60 1 30 4
88 6 127 4 53 -1 71 1 66 10 -13 20 -33 80 -33 101 0 28 34 81 62 96 12 7 37
15 54 19 29 7 32 5 29 -16 -1 -13 2 -21 6 -18 5 3 9 11 9 19 0 7 8 16 19 20
21 6 51 -3 51 -16 0 -5 4 -9 10 -9 5 0 7 7 3 16 -5 13 -2 15 18 9 13 -5 31 -8
39 -9 8 -1 17 -3 20 -6 30 -30 81 -38 100 -15 7 9 20 15 29 14 33 -3 40 2 46
32 11 51 -3 120 -27 127 -13 3 -18 11 -15 23 7 25 -15 46 -98 99 -38 24 -87
57 -109 74 -35 27 -46 30 -130 32 l-91 3 40 -32 c22 -18 65 -54 95 -82 31 -27
71 -63 90 -78 34 -27 34 -27 5 -13 -57 27 -240 138 -262 159 -13 11 -23 27
-23 34 0 12 -16 13 -82 8 -46 -3 -100 -9 -120 -13 l-37 -7 66 -55 c36 -30 85
-71 109 -89 24 -19 41 -37 39 -39 -8 -8 -143 77 -206 129 -34 29 -66 48 -74
45 -8 -3 -19 3 -25 14 -9 17 -5 21 41 34 54 16 248 32 215 18 -19 -8 -19 -9 1
-14 14 -4 24 0 28 9 4 13 20 15 93 10 48 -4 92 -7 97 -7 6 0 3 -5 -5 -10 -20
-13 30 -13 84 0 25 5 46 5 58 -1 12 -6 25 -6 39 1 24 13 42 3 107 -59 23 -23
47 -39 53 -36 5 4 33 -4 62 -18 29 -14 80 -37 114 -50 l62 -25 -30 40 c-36 51
-40 86 -4 46 21 -24 27 -27 50 -18 20 8 25 15 20 28 -4 9 -8 26 -11 36 -6 34
-65 86 -96 86 -29 0 -38 14 -15 23 6 3 -4 6 -23 7 -32 2 -33 3 -10 9 27 8 19
9 -170 32 -143 16 -514 19 -610 5z m-230 -221 c50 -46 108 -97 130 -111 22
-15 40 -28 40 -30 0 -10 -143 70 -215 119 -77 54 -80 55 -108 41 -15 -9 -36
-13 -45 -11 -12 3 -4 10 25 22 23 9 43 26 46 36 9 34 37 20 127 -66z m907 79
c-3 -3 -12 -4 -19 -1 -8 3 -5 6 6 6 11 1 17 -2 13 -5z m-306 -41 c13 -16 12
-17 -3 -4 -10 7 -18 15 -18 17 0 8 8 3 21 -13z m88 -60 c2 -2 0 -3 -5 -3 -5 0
-22 12 -39 26 l-30 26 35 -23 c19 -12 37 -24 39 -26z m-41 -109 c40 -28 24
-94 -24 -94 -26 0 -74 46 -74 72 0 34 61 48 98 22z m-360 -126 c20 -17 14 -57
-14 -83 -56 -52 -114 -15 -106 66 4 34 84 45 120 17z m-254 -34 c25 -9 19 -24
-9 -24 -24 0 -32 10 -18 23 8 8 8 8 27 1z"/>
<path d="M8446 16445 c4 -8 11 -15 16 -15 6 0 5 6 -2 15 -7 8 -14 15 -16 15
-2 0 -1 -7 2 -15z"/>
<path d="M1780 16409 c-204 -19 -293 -33 -274 -40 17 -7 16 -8 -6 -8 -18 -1
-21 -4 -11 -10 19 -12 -16 -31 -61 -32 -18 0 -27 -3 -20 -6 14 -5 17 -33 3
-33 -10 0 -20 -21 -31 -68 -6 -26 -5 -32 5 -28 8 3 16 0 18 -7 3 -8 10 -7 24
6 11 9 22 17 26 17 8 0 -34 -73 -48 -82 -6 -5 -6 -8 2 -8 6 0 14 4 18 9 3 5
22 15 43 22 20 6 64 25 97 41 33 15 65 26 72 23 8 -2 32 14 56 36 55 53 84 72
97 64 22 -13 19 -16 -105 -128 -22 -20 -34 -37 -28 -37 7 0 48 34 90 76 97 94
104 98 151 84 45 -12 113 -13 94 -1 -9 5 3 10 34 15 69 9 134 7 134 -4 0 -5
12 -10 28 -9 l27 1 -25 9 c-43 15 161 -1 217 -17 47 -14 52 -18 43 -34 -6 -11
-17 -17 -25 -14 -8 4 -36 -13 -67 -39 -72 -60 -228 -158 -228 -142 0 3 19 19
43 36 23 17 62 50 87 73 25 23 58 51 74 62 l30 19 -50 8 c-94 15 -159 22 -174
19 -9 -1 -20 -13 -25 -25 -9 -19 -137 -115 -157 -116 -4 -1 -34 -17 -68 -37
-65 -39 -93 -41 -38 -3 18 13 62 49 98 80 36 32 76 67 90 78 l25 20 -91 -3
c-88 -2 -94 -4 -143 -40 -28 -21 -84 -59 -124 -86 l-74 -48 -5 -52 c-3 -29 -3
-61 -1 -71 6 -23 69 -64 112 -74 18 -4 29 -10 26 -13 -4 -4 19 -12 52 -18 l58
-11 -60 -12 -60 -13 52 -20 c57 -21 69 -39 58 -94 -5 -29 -3 -34 13 -34 10 0
27 7 38 15 28 22 97 19 118 -4 15 -17 27 -19 73 -14 31 3 82 0 114 -7 49 -11
64 -10 96 3 21 8 61 18 88 22 28 4 55 10 60 14 10 6 16 7 48 9 31 3 7 22 -27
22 -55 0 -86 60 -53 102 18 24 83 48 95 36 5 -5 29 -7 56 -3 l46 7 1 52 c0 40
2 47 10 31 7 -14 8 -2 5 41 -2 33 -11 75 -21 93 -9 18 -14 35 -12 38 10 10
133 -20 145 -36 7 -9 16 -16 20 -16 4 -1 17 -5 30 -9 29 -10 39 -1 22 19 -7 9
-10 18 -7 21 3 4 1 12 -6 20 -43 48 -43 47 -1 41 35 -6 36 -5 12 4 -16 6 -28
14 -28 19 0 14 -69 52 -81 44 -7 -4 -9 -3 -6 3 7 11 -17 24 -123 68 -117 49
-143 56 -275 76 -138 20 -373 24 -535 8z m-137 -146 c-7 -2 -19 -2 -25 0 -7 3
-2 5 12 5 14 0 19 -2 13 -5z m1014 -11 c2 -11 26 -28 51 -40 35 -15 41 -21 24
-21 -13 -1 -36 6 -52 14 -28 15 -31 14 -74 -19 -71 -54 -195 -128 -207 -124
-6 2 6 17 27 33 22 16 74 62 116 102 78 74 106 88 115 55z m-723 -36 c-31 -23
-80 -50 -69 -38 16 18 80 59 84 55 3 -2 -4 -10 -15 -17z m38 -169 c13 -20 9
-33 -18 -61 -32 -31 -68 -34 -87 -5 -30 42 13 95 68 84 16 -3 33 -11 37 -18z
m620 -88 c24 -28 12 -49 -26 -49 -37 0 -56 15 -56 46 0 39 49 40 82 3z m-254
-25 c33 -23 30 -78 -4 -101 -24 -15 -29 -15 -52 -2 -15 8 -33 26 -41 41 -14
24 -14 28 3 47 10 11 28 22 40 24 11 2 23 5 26 6 3 0 16 -6 28 -15z"/>
<path d="M8486 16394 c18 -29 55 -80 79 -107 27 -31 115 -147 145 -192 18 -27
36 -52 40 -55 3 -3 24 -27 45 -55 46 -57 56 -66 68 -58 4 2 -6 19 -22 36 -17
18 -48 55 -68 84 -39 54 -277 350 -296 368 -6 6 -2 -4 9 -21z"/>
<path d="M5890 16402 c0 -14 138 -142 153 -142 6 0 -6 17 -28 36 -22 20 -59
54 -82 76 -24 22 -43 35 -43 30z"/>
<path d="M6306 16258 c27 -32 47 -47 62 -48 24 0 11 20 -28 45 -49 31 -59 32
-34 3z"/>
<path d="M6368 16273 c7 -3 16 -2 19 1 4 3 -2 6 -13 5 -11 0 -14 -3 -6 -6z"/>
<path d="M4890 16189 c0 -5 5 -7 10 -4 6 3 10 8 10 11 0 2 -4 4 -10 4 -5 0
-10 -5 -10 -11z"/>
<path d="M6856 16182 c-2 -4 -1 -14 5 -22 7 -12 9 -10 9 8 0 23 -5 28 -14 14z"/>
<path d="M6464 16165 c11 -8 23 -15 27 -15 11 0 22 20 12 21 -4 0 -19 2 -33 5
-24 4 -24 3 -6 -11z"/>
<path d="M6540 16172 c0 -5 7 -13 16 -16 10 -4 14 -1 12 6 -5 15 -28 23 -28
10z"/>
<path d="M1390 16150 c0 -5 -4 -10 -9 -10 -18 0 -84 -44 -73 -48 7 -2 9 -8 6
-14 -11 -18 38 13 63 40 21 23 30 42 18 42 -3 0 -5 -4 -5 -10z"/>
<path d="M6540 16136 c0 -8 5 -18 10 -21 6 -3 10 1 10 9 0 8 -4 18 -10 21 -5
3 -10 -1 -10 -9z"/>
<path d="M2780 16080 c0 -5 5 -10 11 -10 5 0 7 5 4 10 -3 6 -8 10 -11 10 -2 0
-4 -4 -4 -10z"/>
<path d="M5662 15748 c2 -6 16 -20 30 -31 20 -15 32 -17 54 -10 39 13 42 31 4
25 -18 -2 -40 2 -55 12 -29 19 -38 20 -33 4z"/>
<path d="M9020 15693 c0 -15 69 -77 77 -69 4 4 2 10 -4 14 -6 4 -13 18 -14 32
-3 19 -11 26 -31 28 -16 2 -28 -1 -28 -5z"/>
<path d="M9110 15612 c0 -5 14 -25 31 -43 16 -19 45 -56 63 -84 34 -52 72 -96
196 -228 168 -178 247 -257 259 -257 7 0 10 -4 7 -8 -2 -4 4 -13 15 -20 10 -7
19 -9 19 -6 0 7 -104 126 -170 196 -19 20 -47 49 -61 65 -14 15 -45 43 -67 62
-23 18 -39 38 -35 44 3 5 2 7 -4 4 -13 -8 -57 39 -48 52 3 6 1 11 -5 11 -6 0
-8 5 -4 12 5 8 2 9 -10 5 -10 -4 -19 -1 -22 8 -4 8 -13 15 -21 15 -9 0 -13 7
-10 18 5 25 -45 90 -117 150 -9 7 -16 9 -16 4z"/>
<path d="M744 14723 c1 -171 5 -306 9 -300 5 7 7 -23 4 -65 -3 -63 -1 -78 10
-78 11 0 13 8 9 28 -5 26 -24 417 -30 627 -1 55 -2 -40 -2 -212z"/>
<path d="M9710 14941 c0 -5 7 -12 16 -15 14 -5 15 -4 4 9 -14 17 -20 19 -20 6z"/>
<path d="M9758 14885 c11 -22 52 -62 52 -51 0 3 -14 21 -31 39 -18 18 -27 23
-21 12z"/>
<path d="M751 14197 c0 -34 6 -269 14 -522 8 -253 17 -584 20 -735 3 -151 10
-304 15 -340 5 -36 14 -135 20 -220 7 -85 15 -180 20 -210 l8 -55 1 56 c0 31
-3 112 -9 180 -16 203 -39 687 -44 944 -3 132 -9 368 -13 525 -4 157 -6 317
-6 357 1 52 -2 73 -12 77 -10 4 -14 -9 -14 -57z"/>
<path d="M1090 14235 c0 -8 4 -15 10 -15 5 0 7 7 4 15 -4 8 -8 15 -10 15 -2 0
-4 -7 -4 -15z"/>
<path d="M1446 13891 c-11 -17 -1 -43 70 -184 35 -70 64 -135 64 -143 0 -8 7
-26 16 -39 9 -13 13 -29 9 -34 -3 -6 1 -21 8 -33 8 -13 20 -45 26 -73 7 -27
21 -74 32 -104 31 -84 49 -187 53 -296 2 -62 8 -101 15 -103 6 -2 14 3 17 12
4 11 19 16 45 16 l39 0 0 -42 c0 -24 7 -52 15 -63 10 -12 13 -30 9 -52 -3 -18
-3 -50 1 -70 6 -32 9 -35 15 -18 5 11 9 37 9 58 1 26 5 37 16 37 18 0 19 12 4
27 -6 6 -13 55 -14 109 -2 58 -8 100 -14 102 -6 2 -11 19 -11 37 0 19 -4 37
-10 40 -5 3 -10 11 -10 16 0 6 5 7 10 4 6 -3 10 3 10 15 0 12 -4 18 -10 15
-11 -7 -13 6 -4 29 9 24 17 20 70 -34 27 -27 57 -50 66 -50 21 0 94 -49 128
-85 14 -15 45 -36 70 -48 25 -12 85 -45 133 -74 48 -29 90 -53 93 -53 9 0 139
-84 142 -92 2 -4 8 -8 14 -8 26 0 146 -65 174 -94 29 -30 55 -87 68 -148 9
-41 23 -34 28 12 2 22 0 40 -4 40 -5 0 -8 8 -8 18 0 19 26 21 83 7 44 -11 31
2 -28 30 -30 15 -55 31 -55 36 0 8 -93 60 -105 59 -3 0 -13 6 -21 15 -9 9 -51
36 -93 61 -110 65 -113 66 -151 90 -19 12 -88 49 -153 83 -112 57 -184 104
-216 140 -12 14 -13 14 -7 -2 6 -18 -3 -17 -32 6 -9 7 -10 12 -2 17 7 4 -26
39 -83 88 -97 84 -196 185 -225 231 -9 14 -19 28 -23 31 -3 3 -45 68 -94 145
-77 123 -115 195 -160 299 -8 17 -15 24 -19 17z m311 -603 c-3 -7 -5 -2 -5 12
0 14 2 19 5 13 2 -7 2 -19 0 -25z m72 -80 c25 -31 18 -56 -13 -45 -15 6 -56
77 -56 97 0 14 38 -15 69 -52z m11 -98 c0 -32 -14 -40 -24 -14 -5 14 8 44 20
44 2 0 4 -13 4 -30z m0 -180 c0 -5 -18 -10 -40 -10 -22 0 -40 5 -40 10 0 6 18
10 40 10 22 0 40 -4 40 -10z"/>
<path d="M6427 13878 c-21 -93 -129 -288 -250 -452 -79 -105 -259 -283 -388
-380 -168 -129 -169 -129 -153 -157 10 -19 13 -20 14 -6 0 9 5 17 11 17 6 0
22 14 36 30 13 17 31 30 38 30 7 0 15 6 18 13 2 6 7 9 11 5 4 -3 -5 -19 -21
-35 -63 -64 -67 -70 -53 -103 7 -16 16 -30 20 -30 5 0 28 24 52 52 23 29 52
62 63 74 11 11 31 35 45 53 14 18 45 55 70 83 25 28 49 58 54 67 5 9 12 18 16
21 3 3 19 23 35 45 16 22 36 47 45 56 8 9 35 40 60 69 25 29 52 60 61 69 8 9
35 46 58 83 27 40 49 64 57 61 8 -3 16 10 24 39 6 23 17 59 24 78 19 49 55
169 62 208 7 36 -1 45 -9 10z"/>
<path d="M6381 13634 c0 -11 3 -14 6 -6 3 7 2 16 -1 19 -3 4 -6 -2 -5 -13z"/>
<path d="M11455 13393 c-7 -19 9 -38 24 -29 16 10 14 33 -3 39 -8 3 -17 -1
-21 -10z"/>
<path d="M11420 13329 c-6 -11 -37 -55 -69 -97 -32 -42 -84 -116 -115 -164
-32 -49 -60 -88 -63 -88 -2 0 -1 5 3 12 4 7 3 8 -4 4 -22 -14 -161 -184 -221
-271 -34 -50 -69 -100 -77 -112 -19 -26 -65 -154 -61 -166 1 -5 20 26 41 69
36 73 123 215 167 274 100 132 130 169 141 176 7 5 6 -2 -4 -16 -26 -36 -50
-81 -46 -85 2 -2 37 45 78 106 125 182 131 191 136 186 6 -5 -13 -43 -43 -87
-17 -25 -17 -25 3 -5 10 11 37 45 60 75 93 125 133 210 100 210 -8 0 -20 -9
-26 -21z"/>
<path d="M1911 13095 c1 -19 18 -51 18 -35 0 8 -4 22 -9 30 -5 8 -9 11 -9 5z"/>
<path d="M1910 13020 c0 -11 4 -20 9 -20 5 0 7 9 4 20 -3 11 -7 20 -9 20 -2 0
-4 -9 -4 -20z"/>
<path d="M1925 12920 c-8 -26 5 -160 16 -160 5 0 9 18 9 40 0 23 -5 40 -11 40
-8 0 -10 17 -7 50 5 53 3 62 -7 30z"/>
<path d="M4945 12470 c-10 -11 -23 -20 -29 -20 -12 -1 -155 -90 -144 -90 19 0
198 109 198 121 0 13 -5 11 -25 -11z"/>
<path d="M5477 12484 c-14 -14 -8 -74 8 -74 9 0 15 9 14 23 -1 31 -13 60 -22
51z"/>
<path d="M2824 12353 c10 -120 25 -361 37 -613 8 -186 8 -286 0 -415 -12 -174
-7 -228 20 -233 13 -2 16 18 17 127 1 71 -2 132 -7 135 -4 3 -9 106 -10 228
-1 251 -14 489 -37 685 -9 73 -13 137 -9 143 3 5 1 10 -6 10 -8 0 -10 -19 -5
-67z"/>
<path d="M5460 12381 c0 -11 -6 -77 -14 -148 -14 -129 -29 -434 -18 -378 6 28
6 27 13 -15 4 -28 5 -8 4 55 -1 55 4 156 11 225 25 239 28 280 15 280 -6 0
-11 -9 -11 -19z"/>
<path d="M3434 12321 c11 -17 197 -101 224 -101 21 0 24 -2 12 -10 -13 -8 -13
-10 1 -10 9 0 71 -27 138 -60 67 -33 124 -60 127 -60 2 0 4 5 4 11 0 11 -24
39 -34 39 -2 0 -35 14 -73 32 -37 18 -76 31 -87 29 -12 -2 -16 1 -11 9 5 8 1
11 -11 8 -11 -2 -24 2 -29 9 -6 8 -24 15 -40 16 -17 1 -34 7 -40 13 -12 14
-188 87 -181 75z"/>
<path d="M3975 12090 c27 -12 43 -12 25 0 -8 5 -22 9 -30 9 -10 0 -8 -3 5 -9z"/>
<path d="M5417 11615 c5 -164 19 -354 28 -381 6 -21 3 -22 -107 -28 -234 -14
-259 -30 -61 -39 119 -5 218 -20 236 -37 4 -3 -4 -27 -17 -53 l-25 -46 22 -3
c35 -6 90 9 104 28 17 24 16 75 -2 100 -8 12 -29 27 -47 34 -85 31 -82 29 -65
48 14 16 14 24 -3 87 -16 60 -40 237 -40 297 0 10 -4 17 -10 13 -5 -3 -11 19
-13 52 -3 32 -3 0 0 -72z"/>
<path d="M5406 11121 c-4 -5 -36 -26 -73 -46 -74 -41 -92 -42 -263 -15 -52 8
-206 11 -510 8 -451 -5 -526 -10 -830 -60 -69 -11 -138 -22 -155 -25 -16 -2
-39 -9 -50 -14 -12 -6 -111 -16 -220 -23 -110 -7 -182 -14 -160 -15 22 -1 58
-6 80 -11 27 -7 136 -5 335 5 347 17 1001 40 1080 38 141 -4 -67 32 -235 40
-33 2 95 5 285 7 731 7 738 7 769 46 27 35 17 74 -20 74 -15 0 -30 -4 -33 -9z"/>
<path d="M2721 10973 c-1 -54 1 -51 -76 -101 -19 -12 -123 -63 -293 -143 -46
-22 -111 -49 -145 -60 -34 -12 -75 -27 -92 -34 -135 -59 -180 -77 -245 -95
-102 -29 -432 -141 -395 -134 17 3 86 23 155 44 69 22 155 46 191 54 36 9 137
41 225 71 87 31 185 65 217 76 33 11 102 40 155 65 54 25 117 55 142 67 25 11
79 42 120 69 92 58 123 58 116 -1 -3 -20 -3 -27 0 -16 9 30 35 55 58 55 16 0
13 5 -14 17 -19 10 -39 23 -43 30 -4 7 -19 13 -32 13 -18 0 -25 8 -33 38 l-10
37 -1 -52z"/>
<path d="M5566 10901 c-7 -11 80 -64 96 -59 6 2 -6 15 -28 28 -21 14 -44 28
-51 32 -6 5 -14 4 -17 -1z"/>
<path d="M5690 10836 c0 -2 9 -6 20 -9 11 -3 18 -1 14 4 -5 9 -34 13 -34 5z"/>
<path d="M9872 8880 c0 -14 2 -19 5 -12 2 6 2 18 0 25 -3 6 -5 1 -5 -13z"/>
<path d="M9910 8673 c0 -10 4 -14 8 -8 4 6 11 13 16 18 5 4 2 7 -7 7 -10 0
-17 -8 -17 -17z"/>
<path d="M8080 8660 c0 -12 4 -19 9 -16 5 4 12 0 14 -6 4 -10 6 -10 6 0 1 7
-6 20 -14 28 -13 14 -15 13 -15 -6z"/>
<path d="M9947 8673 c-9 -14 2 -91 14 -99 10 -6 10 49 0 86 -4 16 -9 21 -14
13z"/>
<path d="M8073 8614 c-8 -4 -9 -13 -1 -35 5 -16 7 -40 4 -54 -3 -13 -1 -27 4
-30 7 -4 10 16 8 59 -2 36 -3 66 -3 65 0 0 -5 -3 -12 -5z"/>
<path d="M8101 8584 c0 -11 3 -14 6 -6 3 7 2 16 -1 19 -3 4 -6 -2 -5 -13z"/>
<path d="M9971 8000 c0 -8 4 -22 9 -30 12 -18 12 -2 0 25 -6 13 -9 15 -9 5z"/>
<path d="M9991 7924 c0 -11 3 -14 6 -6 3 7 2 16 -1 19 -3 4 -6 -2 -5 -13z"/>
<path d="M10031 7764 c0 -11 3 -14 6 -6 3 7 2 16 -1 19 -3 4 -6 -2 -5 -13z"/>
<path d="M13030 7545 c0 -8 2 -15 4 -15 2 0 6 7 10 15 3 8 1 15 -4 15 -6 0
-10 -7 -10 -15z"/>
<path d="M12993 7494 c4 -4 -3 -20 -14 -36 -12 -16 -19 -31 -16 -34 4 -4 47
61 47 72 0 2 -5 4 -12 4 -6 0 -8 -3 -5 -6z"/>
<path d="M12915 7410 c-3 -5 -1 -10 4 -10 6 0 11 5 11 10 0 6 -2 10 -4 10 -3
0 -8 -4 -11 -10z"/>
<path d="M12877 7351 c-24 -42 -21 -52 4 -13 12 18 20 35 17 37 -2 2 -12 -9
-21 -24z"/>
<path d="M12847 7253 c-4 -3 -7 -11 -7 -17 0 -6 5 -5 12 2 6 6 9 14 7 17 -3 3
-9 2 -12 -2z"/>
<path d="M12760 7194 c-6 -14 -10 -29 -10 -34 0 -5 -6 -24 -14 -42 -8 -18 -21
-49 -30 -70 -19 -44 -20 -49 -3 -45 8 1 13 -12 13 -38 l2 -40 -7 39 c-6 38 -7
39 -23 22 -25 -25 -22 -39 12 -60 17 -9 30 -14 29 -9 -4 15 14 88 33 137 10
27 17 54 14 60 -3 7 -5 6 -5 -2 -1 -19 -29 -44 -35 -33 -4 5 -2 11 2 13 5 1
15 23 24 48 8 25 19 53 23 63 4 10 3 17 -4 17 -6 0 -16 -12 -21 -26z"/>
<path d="M12811 7184 c-12 -20 -20 -38 -18 -40 2 -2 14 14 26 36 28 50 21 53
-8 4z"/>
<path d="M12620 6876 c0 -16 22 -58 27 -52 11 11 43 -26 43 -50 0 -17 -4 -22
-15 -18 -11 5 -15 -1 -15 -23 0 -16 5 -34 12 -41 26 -26 33 -12 30 58 -3 60
-7 74 -32 100 -24 26 -50 39 -50 26z"/>
<path d="M6432 6844 c-7 -8 -8 -14 -3 -14 10 0 25 19 20 25 -2 1 -10 -3 -17
-11z"/>
<path d="M6397 6777 c-6 -42 -2 -45 11 -8 6 17 7 33 3 36 -5 2 -11 -10 -14
-28z"/>
<path d="M13441 4813 c0 -29 2 -53 7 -53 4 0 8 -21 9 -46 2 -45 8 -63 19 -52
3 3 0 30 -6 59 -6 30 -15 74 -19 99 l-8 45 -2 -52z"/>
<path d="M12776 4759 c108 -110 200 -210 240 -259 16 -19 31 -37 34 -40 6 -5
103 -118 184 -214 22 -27 46 -54 51 -60 6 -6 26 -31 45 -56 19 -25 37 -47 41
-50 3 -3 11 -14 17 -25 9 -17 11 -17 12 -3 0 19 -134 203 -205 282 -6 6 -26
31 -45 56 -61 78 -413 436 -448 454 -9 5 24 -34 74 -85z"/>
<path d="M13471 4625 c0 -16 4 -48 8 -70 l7 -40 7 30 c5 19 2 45 -7 70 -14 39
-15 39 -15 10z"/>
<path d="M13499 4518 c-6 -28 10 -149 20 -158 4 -3 6 -23 6 -45 0 -28 4 -39
13 -37 9 2 11 -4 7 -17 -7 -24 50 -252 67 -262 6 -4 8 -14 5 -22 -3 -9 3 -40
13 -69 11 -29 19 -47 20 -40 0 20 14 14 32 -15 12 -20 18 -23 18 -11 0 9 -5
20 -10 23 -6 4 -8 11 -5 16 4 5 0 11 -7 14 -8 3 -15 17 -16 32 -1 14 -6 31
-11 37 -13 15 -81 222 -81 244 0 10 -3 22 -7 26 -5 4 -9 17 -9 29 -1 12 -9 63
-18 112 -10 50 -20 108 -25 130 -6 36 -7 38 -12 13z m38 -230 c-3 -8 -6 -5 -6
6 -1 11 2 17 5 13 3 -3 4 -12 1 -19z"/>
<path d="M12610 4432 c205 -194 430 -422 512 -521 17 -19 33 -29 39 -25 7 4 9
3 6 -3 -3 -5 7 -24 23 -42 17 -18 30 -37 30 -43 0 -5 7 -8 14 -5 9 4 13 1 10
-6 -6 -16 64 -99 77 -92 5 4 6 -1 3 -10 -5 -11 -2 -14 11 -9 14 6 16 3 11 -13
-8 -26 18 -52 28 -27 7 19 5 22 -50 94 -156 204 -445 514 -611 654 -178 152
-246 183 -103 48z"/>
<path d="M12530 4394 c0 -3 29 -34 64 -70 57 -58 112 -134 210 -290 64 -103
174 -357 218 -504 27 -91 78 -485 78 -605 0 -55 -7 -129 -16 -165 -14 -60 -61
-179 -75 -190 -3 -3 -9 -16 -12 -30 -3 -14 -13 -51 -22 -83 -19 -68 -15 -97 6
-49 7 18 17 32 20 32 8 0 79 162 110 250 20 58 23 83 22 220 -1 85 -7 180 -12
210 -6 30 -22 127 -36 215 -39 254 -44 271 -117 465 -31 83 -149 297 -206 375
-80 111 -232 254 -232 219z"/>
<path d="M13510 3915 c0 -5 5 -17 10 -25 5 -8 10 -10 10 -5 0 6 -5 17 -10 25
-5 8 -10 11 -10 5z"/>
<path d="M13663 3800 c4 -14 10 -37 13 -52 4 -16 10 -28 14 -28 4 0 11 -17 15
-37 4 -21 18 -56 31 -79 13 -22 22 -44 19 -47 -3 -4 0 -3 6 2 7 6 4 21 -10 47
-12 21 -21 47 -21 56 0 10 -4 18 -10 18 -5 0 -10 9 -10 19 0 11 -4 23 -10 26
-5 3 -10 20 -10 36 0 17 -8 38 -17 47 -16 16 -16 15 -10 -8z"/>
<path d="M13710 3811 c0 -6 4 -13 10 -16 6 -3 7 1 4 9 -7 18 -14 21 -14 7z"/>
<path d="M13753 3708 c18 -42 33 -68 40 -68 4 0 -2 18 -13 40 -18 36 -40 58
-27 28z"/>
<path d="M13386 3615 c-3 -9 -2 -13 3 -10 5 3 12 1 16 -5 3 -5 1 -10 -5 -10
-15 0 2 -29 39 -65 17 -16 31 -34 31 -40 0 -5 8 -19 17 -30 15 -19 15 -19 9 9
-8 35 -50 88 -61 78 -5 -4 -5 1 -2 10 4 11 2 17 -6 15 -7 -1 -11 7 -9 19 4 27
-23 52 -32 29z"/>
<path d="M13811 3584 c0 -11 3 -14 6 -6 3 7 2 16 -1 19 -3 4 -6 -2 -5 -13z"/>
<path d="M13821 3544 c0 -11 3 -14 6 -6 3 7 2 16 -1 19 -3 4 -6 -2 -5 -13z"/>
<path d="M13782 3520 c0 -14 2 -19 5 -12 2 6 2 18 0 25 -3 6 -5 1 -5 -13z"/>
<path d="M12595 3500 c4 -14 41 -95 82 -180 42 -85 86 -180 100 -210 13 -30
28 -64 33 -75 6 -11 24 -54 41 -95 17 -41 45 -111 64 -156 18 -44 39 -99 46
-122 7 -23 14 -40 17 -38 4 5 -41 150 -63 201 -7 17 -22 60 -35 97 -12 37 -34
93 -49 125 -16 32 -31 68 -35 79 -4 12 -26 57 -49 100 -23 44 -51 99 -62 124
-28 63 -98 180 -90 150z"/>
<path d="M13850 3494 c0 -10 5 -26 10 -34 8 -11 9 -7 4 15 -8 37 -14 45 -14
19z"/>
<path d="M13797 3484 c-3 -4 1 -20 9 -36 20 -39 28 -30 11 11 -7 17 -16 28
-20 25z"/>
<path d="M13880 3411 c0 -6 4 -13 10 -16 6 -3 7 1 4 9 -7 18 -14 21 -14 7z"/>
<path d="M13837 3379 c4 -13 8 -18 11 -10 2 7 -1 18 -6 23 -8 8 -9 4 -5 -13z"/>
<path d="M13861 3334 c0 -11 3 -14 6 -6 3 7 2 16 -1 19 -3 4 -6 -2 -5 -13z"/>
<path d="M13890 3281 c0 -6 4 -13 10 -16 6 -3 7 1 4 9 -7 18 -14 21 -14 7z"/>
<path d="M13975 3137 c10 -15 20 -25 23 -22 3 3 -5 16 -17 28 l-23 22 17 -28z"/>
<path d="M14000 3092 c0 -5 7 -15 15 -22 8 -7 15 -9 15 -6 0 4 -7 14 -15 22
-8 9 -15 11 -15 6z"/>
<path d="M14030 3041 c0 -6 5 -13 10 -16 6 -3 10 1 10 9 0 9 -4 16 -10 16 -5
0 -10 -4 -10 -9z"/>
<path d="M12986 2597 c3 -10 9 -15 12 -12 3 3 0 11 -7 18 -10 9 -11 8 -5 -6z"/>
<path d="M5689 2499 c11 -45 40 -113 46 -107 6 5 -33 119 -45 132 -5 5 -5 -7
-1 -25z"/>
<path d="M12603 2485 c0 -27 2 -38 4 -22 2 15 2 37 0 50 -2 12 -4 0 -4 -28z"/>
<path d="M12600 2334 c5 -22 11 -48 13 -59 3 -11 3 3 0 30 -2 28 -8 54 -13 59
-5 5 -5 -9 0 -30z"/>
<path d="M5968 2298 c4 -16 2 -19 -9 -13 -9 5 -7 1 3 -11 10 -11 24 -35 33
-54 15 -35 36 -71 45 -80 6 -6 128 -220 150 -263 8 -16 26 -39 40 -51 26 -22
72 -81 83 -106 4 -8 20 -37 37 -65 36 -59 115 -221 156 -320 16 -38 30 -62 32
-52 4 21 -64 206 -84 228 -8 8 -14 20 -14 26 0 24 -186 313 -201 313 -6 0 -8
7 -5 16 3 8 2 12 -4 9 -6 -3 -13 2 -17 12 -4 10 -23 43 -42 73 -20 30 -41 64
-47 75 -93 170 -118 212 -130 221 -8 7 -14 16 -13 20 4 21 -2 44 -10 44 -5 0
-7 -10 -3 -22z"/>
<path d="M6580 2290 c-5 -12 -6 -90 -1 -90 4 0 6 -37 7 -83 1 -56 11 -124 33
-214 18 -73 35 -133 38 -133 11 0 -9 177 -29 264 -11 49 -26 128 -33 175 -7
47 -13 84 -15 81z"/>
<path d="M13196 2183 c134 -254 175 -325 181 -319 4 4 -37 86 -97 191 -12 22
-47 84 -77 138 -30 53 -57 97 -60 97 -2 0 21 -48 53 -107z"/>
<path d="M12661 2024 c0 -11 3 -14 6 -6 3 7 2 16 -1 19 -3 4 -6 -2 -5 -13z"/>
</g>
</svg>
